<?xml version="1.0" standalone="no"?>
<!DOCTYPE svg PUBLIC "-//W3C//DTD SVG 20010904//EN"
 "http://www.w3.org/TR/2001/REC-SVG-20010904/DTD/svg10.dtd">
<svg version="1.0" xmlns="http://www.w3.org/2000/svg"
 width="512.000000pt" height="512.000000pt" viewBox="0 0 512.000000 512.000000"
 preserveAspectRatio="xMidYMid meet">

<g transform="translate(0.000000,512.000000) scale(0.100000,-0.100000)"
fill="#000000" stroke="none">
<path d="M1645 4709 c-156 -31 -314 -156 -385 -303 -51 -107 -60 -164 -60
-383 l0 -183 561 0 561 0 -4 218 c-4 202 -6 222 -29 283 -36 93 -69 147 -133
212 -101 102 -224 156 -371 162 -49 2 -112 0 -140 -6z"/>
<path d="M1200 3600 l0 -80 560 0 560 0 0 80 0 80 -560 0 -560 0 0 -80z"/>
<path d="M1177 3353 c-3 -5 -12 -34 -21 -65 -9 -32 -19 -64 -22 -73 -5 -13 8
-15 89 -15 l96 0 6 33 c3 17 9 53 14 80 l8 47 -83 0 c-45 0 -85 -3 -87 -7z"/>
<path d="M1506 3343 c-2 -10 -7 -38 -11 -63 -4 -25 -9 -53 -11 -62 -5 -16 4
-18 95 -18 l101 0 0 80 0 80 -84 0 c-72 0 -85 -3 -90 -17z"/>
<path d="M1840 3280 l0 -80 101 0 c91 0 100 2 95 18 -2 9 -7 37 -11 62 -12 84
-7 80 -101 80 l-84 0 0 -80z"/>
<path d="M2181 3313 c5 -26 11 -63 14 -80 l6 -33 94 0 c52 0 95 1 95 3 0 1
-11 36 -23 77 l-24 75 -85 3 -86 3 9 -48z"/>
<path d="M3390 2869 c-326 -203 -598 -373 -603 -378 -5 -5 16 -87 49 -194 l57
-185 66 28 c36 16 217 94 401 173 l335 145 151 391 c84 215 149 391 145 390
-3 0 -274 -166 -601 -370z"/>
<path d="M1065 2988 c-9 -29 -20 -65 -25 -80 l-9 -28 118 0 119 0 11 63 c18
104 25 97 -93 97 l-104 0 -17 -52z"/>
<path d="M1457 3033 c-3 -5 -8 -30 -11 -58 -4 -27 -10 -60 -13 -72 -5 -23 -5
-23 121 -23 l126 0 0 80 0 80 -109 0 c-61 0 -112 -3 -114 -7z"/>
<path d="M1840 2960 l0 -80 125 0 126 0 -6 33 c-3 17 -9 52 -13 77 l-8 45
-112 3 -112 3 0 -81z"/>
<path d="M2230 3023 c0 -9 5 -45 11 -80 l11 -63 119 0 118 0 -9 28 c-5 15 -16
51 -25 80 l-17 52 -104 0 c-90 0 -104 -2 -104 -17z"/>
<path d="M980 2716 c0 -2 -151 -493 -335 -1092 -184 -598 -333 -1089 -332
-1090 3 -4 618 443 639 464 12 13 49 220 152 862 75 465 136 848 136 853 0 4
-58 7 -130 7 -71 0 -130 -2 -130 -4z"/>
<path d="M1266 1861 c-76 -473 -137 -864 -135 -869 2 -6 114 -108 249 -227
135 -120 257 -229 273 -243 l27 -26 0 1112 0 1112 -138 0 -137 0 -139 -859z"/>
<path d="M1840 1608 l0 -1112 28 26 c15 14 137 123 272 243 135 119 247 221
249 227 2 5 -59 396 -135 869 l-139 859 -137 0 -138 0 0 -1112z"/>
<path d="M2280 2713 c-1 -45 275 -1701 284 -1711 17 -18 640 -471 643 -468 2
1 -148 492 -332 1090 -184 599 -335 1090 -335 1092 0 2 -58 4 -130 4 -71 0
-130 -3 -130 -7z"/>
<path d="M3346 2135 c-219 -96 -400 -175 -402 -177 -4 -5 112 -388 121 -396 7
-7 14 -5 703 164 325 81 592 149 592 153 -1 6 -596 424 -609 428 -3 1 -185
-77 -405 -172z"/>
<path d="M3757 1560 c-351 -87 -640 -160 -641 -162 -2 -2 22 -85 53 -185 l56
-183 35 1 c19 0 217 19 440 42 l405 42 153 303 c84 166 149 302 145 301 -5 0
-295 -72 -646 -159z"/>
<path d="M3702 914 c-228 -23 -416 -45 -419 -48 -3 -3 26 -108 65 -233 l70
-228 668 -3 c369 -1 664 2 659 6 -6 5 -146 131 -312 280 -167 150 -306 271
-310 271 -5 -1 -194 -21 -421 -45z"/>
<path d="M877 742 c-156 -113 -158 -115 -151 -146 17 -82 88 -162 163 -184 21
-7 82 -12 135 -12 l96 0 0 193 -1 192 -42 36 -42 36 -158 -115z"/>
<path d="M2230 631 l-254 -226 288 -3 c158 -1 413 -1 566 0 l278 3 -274 199
c-150 109 -290 211 -311 226 l-38 28 -255 -227z"/>
<path d="M1280 521 l0 -121 130 0 c72 0 130 2 130 4 0 2 -58 56 -130 121
l-130 116 0 -120z"/>
</g>
</svg>
