<?xml version="1.0" standalone="no"?>
<!DOCTYPE svg PUBLIC "-//W3C//DTD SVG 20010904//EN"
 "http://www.w3.org/TR/2001/REC-SVG-20010904/DTD/svg10.dtd">
<svg version="1.0" xmlns="http://www.w3.org/2000/svg"
 width="512.000000pt" height="512.000000pt" viewBox="0 0 512.000000 512.000000"
 preserveAspectRatio="xMidYMid meet">

<g transform="translate(0.000000,512.000000) scale(0.100000,-0.100000)"
fill="#000000" stroke="none">
<path d="M3455 5114 c-579 -63 -1078 -459 -1264 -1002 -41 -120 -69 -262 -77
-399 l-7 -109 1254 -532 c690 -293 1262 -532 1271 -532 20 0 180 178 248 276
97 140 172 319 212 507 29 138 31 407 4 547 -62 318 -197 573 -425 801 -225
224 -470 358 -774 420 -100 20 -347 33 -442 23z"/>
<path d="M1365 4514 c-395 -57 -671 -188 -920 -439 -221 -222 -351 -462 -417
-769 -17 -82 -21 -135 -22 -281 0 -206 17 -305 82 -492 l38 -108 1072 -3 1073
-2 -64 82 c-286 367 -427 827 -388 1261 20 224 73 433 151 594 l36 73 -65 21
c-137 42 -243 60 -396 64 -82 2 -163 1 -180 -1z"/>
<path d="M2160 3239 c0 -29 66 -203 110 -291 98 -196 240 -372 399 -498 45
-35 81 -67 81 -71 0 -4 -111 -268 -247 -586 l-246 -578 -1 -80 c-1 -68 3 -87
26 -130 14 -27 44 -67 65 -87 134 -129 365 -99 459 61 9 16 125 284 258 597
207 486 245 569 262 567 10 -1 64 -7 119 -14 189 -22 429 4 621 67 85 28 290
121 283 129 -3 2 -110 49 -239 103 -233 99 -1483 630 -1780 756 -85 36 -158
66 -162 66 -5 0 -8 -5 -8 -11z"/>
<path d="M331 2088 c43 -61 214 -223 302 -285 152 -107 354 -199 534 -243 l42
-11 3 -662 3 -662 28 -57 c53 -107 143 -162 267 -163 62 0 85 5 132 28 69 34
121 91 148 164 19 52 20 77 20 703 l0 649 43 11 c69 18 169 51 222 75 l51 22
94 223 c52 123 97 227 98 232 2 4 -449 8 -1003 8 l-1006 0 22 -32z"/>
<path d="M3462 1500 c-108 -29 -187 -75 -273 -160 -185 -184 -230 -448 -115
-685 71 -147 205 -266 356 -315 106 -35 254 -35 359 -1 299 98 479 423 401
725 -11 43 -34 105 -52 139 -42 81 -164 203 -245 245 -132 69 -291 88 -431 52z"/>
</g>
</svg>
